<svg width="784" height="784" viewBox="0 0 784 784" fill="none" xmlns="http://www.w3.org/2000/svg">
<circle cx="392" cy="392" r="341" fill="#C86DBF"/>
<path d="M509.391 225H235.478V489.316C235.478 510.853 253.087 528.474 274.609 528.474H470.261C491.783 528.474 509.391 510.853 509.391 489.316V440.368C568.83 440.368 617 392.155 617 332.684C617 273.213 568.83 225 509.391 225ZM509.391 391.421V273.947C541.811 273.947 568.087 300.242 568.087 332.684C568.087 365.117 541.811 391.421 509.391 391.421ZM167 548.053V570.578C167 589.139 187.24 597 212 597H572C596.75 597 617 589.139 617 570.578V548.053H167Z" fill="white"/>
</svg>
