<svg width="784" height="784" viewBox="0 0 784 784" fill="none" xmlns="http://www.w3.org/2000/svg">
<circle cx="392" cy="392" r="341" fill="#776DC8"/>
<path d="M365.492 215.4L325.018 174.927C317.117 167.024 304.303 167.024 296.4 174.927L255.927 215.4C248.024 223.301 248.024 236.115 255.927 244.018C263.831 251.919 276.644 251.919 284.545 244.018L310.709 217.853L336.874 244.018C340.825 247.969 346.004 249.945 351.183 249.945C356.362 249.945 361.541 247.969 365.491 244.018C373.394 236.116 373.394 223.303 365.492 215.4Z" fill="white"/>
<path d="M527.381 174.927C519.48 167.024 506.667 167.024 498.763 174.927L472.6 201.092L446.436 174.927C438.535 167.024 425.72 167.024 417.818 174.927C409.915 182.829 409.915 195.643 417.818 203.545L458.29 244.018C462.241 247.969 467.421 249.945 472.6 249.945C477.779 249.945 482.958 247.969 486.908 244.018L527.38 203.545C535.284 195.644 535.284 182.83 527.381 174.927Z" fill="white"/>
<path d="M527.381 296.345C523.587 292.551 518.438 290.418 513.072 290.418L391.89 290.431C391.81 290.428 391.733 290.418 391.655 290.418C391.575 290.418 391.5 290.429 391.42 290.431L270.235 290.443C259.059 290.443 250.001 299.502 250.001 310.678V593.963C250.001 605.139 259.061 614.2 270.237 614.2H513.073C524.249 614.2 533.31 605.139 533.31 593.963V310.655C533.31 305.287 531.178 300.14 527.381 296.345ZM371.419 573.727H290.474V330.912L371.419 330.904V573.727ZM492.837 573.727H411.891V330.899L492.837 330.892V573.727Z" fill="white"/>
</svg>
