<svg width="912" height="456" viewBox="0 0 912 456" fill="none" xmlns="http://www.w3.org/2000/svg">
<g clip-path="url(#clip0_70_15)">
<rect width="912" height="456" fill="white"/>
<mask id="path-1-outside-1_70_15" maskUnits="userSpaceOnUse" x="0" y="0" width="912" height="456" fill="black">
<rect fill="white" width="912" height="456"/>
<path d="M40 40H872V416H40V40Z"/>
</mask>
<path d="M40 40H872V416H40V40Z" fill="#48AEE2"/>
<path d="M40 40V0H0V40H40ZM872 40H912V0H872V40ZM872 416V456H912V416H872ZM40 416H0V456H40V416ZM40 40V80H872V40V0H40V40ZM872 40H832V416H872H912V40H872ZM872 416V376H40V416V456H872V416ZM40 416H80V40H40H0V416H40Z" fill="#FFAF00" mask="url(#path-1-outside-1_70_15)"/>
<path d="M222.916 154.4H339.116V188H273.316V217.12H328.756V247.36H273.316V279.84H338.836V314H222.916V154.4ZM407.248 249.6V314H360.488V154.4H407.808L450.088 218.8C456.435 228.32 461.288 236.347 464.648 242.88H465.488V216V154.4H511.968V314H464.368L420.968 246.8L408.368 227.76H407.528L407.248 249.6ZM595.59 154.4C617.43 154.4 635.257 156.453 649.07 160.56C663.07 164.667 673.897 172.413 681.55 183.8C689.39 195.187 693.31 211.52 693.31 232.8C693.31 255.573 689.203 272.933 680.99 284.88C672.777 296.64 661.763 304.48 647.95 308.4C634.137 312.133 616.683 314 595.59 314H539.59V154.4H595.59ZM633.11 275.92C635.35 273.68 636.937 267.893 637.87 258.56C638.803 249.227 639.27 240.64 639.27 232.8C639.27 222.907 638.523 215.067 637.03 209.28C635.723 203.307 633.297 198.547 629.75 195C624.15 188.84 614.537 185.76 600.91 185.76C598.483 185.76 594.843 185.947 589.99 186.32V279.28C593.163 279.653 598.11 279.84 604.83 279.84C611.737 279.84 617.803 279.56 623.03 279C628.443 278.253 631.803 277.227 633.11 275.92Z" fill="white"/>
</g>
<defs>
<clipPath id="clip0_70_15">
<rect width="912" height="456" fill="white"/>
</clipPath>
</defs>
</svg>
