<svg width="784" height="784" viewBox="0 0 784 784" fill="none" xmlns="http://www.w3.org/2000/svg">
<circle cx="392" cy="392" r="341" fill="#595757"/>
<path fill-rule="evenodd" clip-rule="evenodd" d="M338.862 171.3C322.625 185.695 322.625 212.026 322.625 264.688V518.313C322.625 570.975 322.625 597.306 338.862 611.7C355.1 626.095 379.918 621.765 429.556 613.108L483.021 603.784C537.995 594.195 565.481 589.401 581.804 569.237C598.125 549.075 598.125 519.913 598.125 461.59V321.411C598.125 263.088 598.125 233.926 581.804 213.763C565.481 193.599 537.995 188.805 483.021 179.217L429.556 169.892C379.918 161.234 355.1 156.905 338.862 171.3ZM391.5 349.454C401.009 349.454 408.719 357.522 408.719 367.474V415.526C408.719 425.479 401.009 433.546 391.5 433.546C381.991 433.546 374.281 425.479 374.281 415.526V367.474C374.281 357.522 381.991 349.454 391.5 349.454Z" fill="white"/>
<path d="M289.27 219.312C242.016 219.381 217.384 220.42 201.686 236.118C184.875 252.929 184.875 279.986 184.875 334.099V448.891C184.875 503.004 184.875 530.06 201.686 546.873C217.384 562.569 242.016 563.609 289.27 563.678C288.184 549.368 288.186 532.825 288.188 514.942V268.046C288.186 250.166 288.184 233.622 289.27 219.312Z" fill="white"/>
</svg>
