<svg width="784" height="784" viewBox="0 0 784 784" fill="none" xmlns="http://www.w3.org/2000/svg">
<circle cx="392" cy="392" r="341" fill="#48AEE2"/>
<path d="M246.189 287.966C275.001 287.966 298.426 264.541 298.426 235.729C298.426 206.918 275.001 183.493 246.189 183.493C217.377 183.493 193.952 206.918 193.952 235.729C193.952 264.541 217.377 287.966 246.189 287.966ZM559.61 287.966C588.422 287.966 611.847 264.541 611.847 235.729C611.847 206.918 588.422 183.493 559.61 183.493C530.798 183.493 507.373 206.918 507.373 235.729C507.373 264.541 530.798 287.966 559.61 287.966ZM663.512 472.836L626.293 321.186C623.6 310.167 613.642 302.413 601.971 301.434C589.728 309.351 575.199 314.085 559.528 314.085C543.857 314.085 529.329 309.351 517.086 301.434C505.414 302.413 495.457 310.167 492.763 321.186L455.544 472.836C452.688 485.16 462.482 496.913 475.705 496.913H520.432V581.798C520.432 592.654 529.166 601.387 540.021 601.387H579.199C590.054 601.387 598.787 592.654 598.787 581.798V496.913H643.515C656.738 496.913 666.532 485.16 663.512 472.836ZM415.959 183.493H389.84C382.658 183.493 376.781 189.369 376.781 196.552V588.328C376.781 595.51 382.658 601.387 389.84 601.387H415.959C423.141 601.387 429.018 595.51 429.018 588.328V196.552C429.018 189.369 423.141 183.493 415.959 183.493ZM288.713 301.352C276.47 309.351 261.86 314.085 246.189 314.085C230.518 314.085 215.908 309.351 203.665 301.352C183.587 303.066 167.834 319.716 167.834 340.203V451.206C167.834 462.062 176.567 470.795 187.423 470.795H193.952V581.798C193.952 592.654 202.686 601.387 213.541 601.387H278.837C289.693 601.387 298.426 592.654 298.426 581.798V470.795H304.955C315.811 470.795 324.544 462.062 324.544 451.206V340.203C324.544 319.716 308.792 303.066 288.713 301.352Z" fill="white"/>
</svg>
