<svg width="784" height="784" viewBox="0 0 784 784" fill="none" xmlns="http://www.w3.org/2000/svg">
<circle cx="392" cy="392" r="341" fill="#79CB8E"/>
<path d="M394.054 290.666C437.771 290.666 473.061 255.089 473.061 211.228C473.061 167.456 437.782 132 394.054 132C350.392 132 314.947 167.467 314.947 211.228C314.947 255.078 350.403 290.666 394.054 290.666ZM470.926 308.947C507.101 308.947 522.285 339.847 522.285 339.847L639.037 500.703C643.87 507.88 646.712 516.661 646.712 526.139C646.712 551.133 626.496 571.448 601.58 571.448C595.619 571.448 589.846 570.154 584.781 568.186L514.002 548.567V618.605H270.699V548.567L199.898 568.219C194.922 570.166 189.193 571.493 183.21 571.493C158.316 571.493 138 551.254 138 526.261C138 516.794 140.798 508.157 145.808 500.957L262.482 339.847C262.482 339.847 277.656 308.947 313.675 308.947H470.926ZM392.417 569.812L483.611 539.509L481.631 538.956C418.539 520.465 442.725 436.902 505.663 455.603L514.002 458.567V364.332L392.472 404.399L270.699 364.332V458.567L279.038 455.592C341.943 436.902 366.384 520.454 303.335 538.945L301.123 539.498L392.417 569.812Z" fill="white"/>
</svg>
