<svg width="784" height="784" viewBox="0 0 784 784" fill="none" xmlns="http://www.w3.org/2000/svg">
<circle cx="392" cy="392" r="341" fill="#48AEE2"/>
<path d="M392.355 287.474C421.167 287.474 444.592 264.049 444.592 235.237C444.592 206.425 421.167 183 392.355 183C363.543 183 340.118 206.425 340.118 235.237C340.118 264.049 363.543 287.474 392.355 287.474ZM434.879 300.859C422.636 308.858 408.026 313.592 392.355 313.592C376.684 313.592 362.074 308.858 349.831 300.859C329.753 302.573 314 319.224 314 339.71V450.714C314 461.569 322.733 470.302 333.589 470.302H340.118V581.306C340.118 592.161 348.852 600.894 359.707 600.894H425.003C435.859 600.894 444.592 592.161 444.592 581.306V470.302H451.122C461.977 470.302 470.71 461.569 470.71 450.714V339.71C470.71 319.224 454.958 302.573 434.879 300.859Z" fill="white"/>
</svg>
