<svg width="784" height="784" viewBox="0 0 784 784" fill="none" xmlns="http://www.w3.org/2000/svg">
<circle cx="392" cy="392" r="341" fill="#79CB8E"/>
<path d="M607.863 419.239L565.939 456.348L447.508 561.143C440.036 567.719 430.553 571.242 420.777 571.242C417.93 571.242 415.081 570.978 412.234 570.361L344.548 555.374L262.799 537.318L205.477 524.65L197.272 522.815C194.688 521.934 192.369 520.775 190.343 519.292C187.084 516.915 184.501 513.861 182.739 510.323C180.918 506.8 179.965 502.866 179.965 498.873C179.965 496.436 180.376 493.852 181.11 491.342C182.005 488.626 183.283 486.19 184.853 484.017C187.157 480.758 190.284 478.175 193.807 476.413C197.272 474.578 201.205 473.639 205.198 473.639H205.829L250.381 483.415L307.498 495.892L406.685 517.588C411.485 518.674 416.374 519.144 421.247 519.144C424.036 519.144 426.751 519.011 429.467 518.674C443.163 517.045 456.184 511.349 466.84 501.984L470.231 499.004L587.987 394.752L627.21 360.006C632.288 355.529 633.375 348.278 630.248 342.582C629.778 341.627 629.162 340.688 628.427 339.866C623.275 333.965 614.247 333.422 608.346 338.647L566.422 375.756L447.992 480.553C440.52 487.145 431.022 490.668 421.246 490.668C418.398 490.668 415.55 490.389 412.702 489.786L345.016 474.784L263.268 456.743L205.96 444.061L205.872 444.046V443.855L205.475 443.782L197.27 441.961C196.858 441.814 196.506 441.624 196.111 441.476C195.112 441.05 194.114 440.698 193.19 440.125C192.383 439.788 191.561 439.244 190.826 438.701C187.567 436.323 184.983 433.27 183.222 429.747C181.387 426.224 180.433 422.289 180.433 418.282C180.433 415.831 180.844 413.262 181.592 410.752C182.473 408.036 183.765 405.6 185.321 403.427C187.625 400.168 190.752 397.599 194.275 395.838C197.74 394.003 201.673 393.048 205.681 393.048C206.356 393.048 207.032 393.122 207.721 393.122L239.047 399.904L266.791 405.864L403.836 435.516C420.79 439.245 438.494 434.635 451.514 423.097L535.758 348.894L586.166 304.519L621.778 273.12C629.513 266.265 632.772 255.681 630.115 245.714C627.532 235.673 619.531 228.011 609.432 225.839L598.701 223.534L520.566 206.64L421.598 185.267C404.644 181.538 386.94 186.148 373.92 197.686L241.705 313.828L201.939 348.749L167.354 379.15C165.93 380.765 164.712 382.394 163.626 384.155C163.009 384.904 162.466 385.58 161.922 386.402C158.532 391.011 155.816 396.31 153.995 402.079C152.292 407.437 151.47 412.927 151.47 418.285C151.47 429.882 155.213 440.935 161.775 450.037C163.844 452.914 166.296 455.527 168.909 457.978L168.777 458.11L166.869 459.739C165.444 461.368 164.226 462.983 163.14 464.76C162.538 465.494 161.995 466.184 161.452 466.991C158.061 471.6 155.345 476.9 153.51 482.669C151.822 488.027 151 493.517 151 498.875C151 510.457 154.729 521.525 161.305 530.611C164.622 535.22 168.63 539.286 173.327 542.692C177.936 546.082 183.221 548.798 188.975 550.56L189.592 550.765L249.894 563.991L307.011 576.468L406.198 598.179C411.013 599.265 415.901 599.734 420.775 599.734C437.407 599.734 453.598 593.76 466.369 582.574L469.759 579.594L587.515 475.328L626.723 440.597C632.624 435.385 633.167 426.358 627.941 420.456C622.791 414.556 613.779 414.013 607.863 419.239Z" fill="white"/>
</svg>
