<svg width="784" height="784" viewBox="0 0 784 784" fill="none" xmlns="http://www.w3.org/2000/svg">
<circle cx="392" cy="392" r="341" fill="#776DC8"/>
<path fill-rule="evenodd" clip-rule="evenodd" d="M569.68 547.42C569.68 559.708 559.708 569.68 547.42 569.68H235.78C223.492 569.68 213.52 559.708 213.52 547.42V235.78C213.52 223.492 223.492 213.52 235.78 213.52H280.3C292.588 213.52 302.56 223.492 302.56 235.78V302.56C302.56 327.157 322.505 347.08 347.08 347.08H413.86C426.148 347.08 436.12 357.052 436.12 369.34V436.12C436.12 460.717 456.065 480.64 480.64 480.64H547.42C559.708 480.64 569.68 490.612 569.68 502.9V547.42ZM569.68 436.12H502.9C490.612 436.12 480.64 426.148 480.64 413.86V347.08C480.64 322.483 460.695 302.56 436.12 302.56H347.08V213.52C347.08 188.923 327.135 169 302.56 169H213.52C188.945 169 169 188.923 169 213.52V569.68C169 594.277 188.945 614.2 213.52 614.2H569.68C594.255 614.2 614.2 594.277 614.2 569.68V480.64C614.2 456.043 594.255 436.12 569.68 436.12Z" fill="white"/>
</svg>
