<svg width="912" height="456" viewBox="0 0 912 456" fill="none" xmlns="http://www.w3.org/2000/svg">
<g clip-path="url(#clip0_70_13)">
<rect width="912" height="456" fill="white"/>
<mask id="path-1-outside-1_70_13" maskUnits="userSpaceOnUse" x="0" y="0" width="912" height="456" fill="black">
<rect fill="white" width="912" height="456"/>
<path d="M40 40H872V416H40V40Z"/>
</mask>
<path d="M40 40H872V416H40V40Z" fill="#FFAF00"/>
<path d="M40 40V0H0V40H40ZM872 40H912V0H872V40ZM872 416V456H912V416H872ZM40 416H0V456H40V416ZM40 40V80H872V40V0H40V40ZM872 40H832V416H872H912V40H872ZM872 416V376H40V416V456H872V416ZM40 416H80V40H40H0V416H40Z" fill="#48AEE2" mask="url(#path-1-outside-1_70_13)"/>
<path d="M142.131 197.52C142.131 201.44 144.091 204.52 148.011 206.76C152.118 209 158.464 211.427 167.051 214.04C177.318 217.4 185.718 220.667 192.251 223.84C198.971 227.013 204.758 231.96 209.611 238.68C214.651 245.4 217.171 254.173 217.171 265C217.171 299.72 194.584 317.08 149.411 317.08C141.944 317.08 132.798 316.427 121.971 315.12C111.331 313.813 101.624 312.133 92.8509 310.08C93.2243 306.16 93.9709 300.467 95.0909 293C96.3976 285.347 97.6109 279.653 98.7309 275.92C105.264 276.853 115.064 277.973 128.131 279.28C141.384 280.587 151.371 281.24 158.091 281.24C162.011 281.24 164.344 280.96 165.091 280.4C166.211 279.653 167.051 278.44 167.611 276.76C168.358 274.893 168.731 273.307 168.731 272C168.731 268.267 166.958 265.467 163.411 263.6C159.864 261.547 153.798 259.12 145.211 256.32C134.944 253.147 126.451 249.88 119.731 246.52C113.011 243.16 107.131 237.933 102.091 230.84C97.0509 223.747 94.5309 214.413 94.5309 202.84C94.5309 194.627 96.3976 186.6 100.131 178.76C103.864 170.733 107.691 165.32 111.611 162.52C114.598 160.467 120.758 158.507 130.091 156.64C139.424 154.773 148.198 153.84 156.411 153.84C177.318 153.84 194.398 155.8 207.651 159.72C207.464 163.453 206.811 168.587 205.691 175.12C204.758 181.653 203.731 187.627 202.611 193.04L196.171 192.76C171.904 191.08 156.411 190.24 149.691 190.24C146.891 190.24 145.304 190.333 144.931 190.52C144.184 190.893 143.531 191.733 142.971 193.04C142.411 194.347 142.131 195.84 142.131 197.52ZM320.751 314H270.351V189.4H225.271V154.4H365.831V189.4H320.751V314ZM462.322 279H415.842L407.442 314H355.922L407.442 154.4H473.242L522.522 314H470.722L462.322 279ZM438.802 188.84L422.282 247.92H455.602L439.922 188.84H438.802ZM681.765 314H628.845L619.325 273.68C618.952 272.187 618.299 269.667 617.365 266.12C616.619 262.387 615.685 259.68 614.565 258C613.445 256.133 611.859 254.92 609.805 254.36C604.579 254.547 596.925 254.64 586.845 254.64V314H536.445V155.8C559.032 154.12 580.125 153.28 599.725 153.28C617.459 153.28 631.832 154.773 642.845 157.76C653.859 160.56 662.072 165.507 667.485 172.6C673.085 179.507 675.885 189.027 675.885 201.16C675.885 212.547 673.272 221.507 668.045 228.04C662.819 234.387 654.419 238.213 642.845 239.52V241.2C649.379 241.76 654.792 243.907 659.085 247.64C663.565 251.187 666.552 255.76 668.045 261.36L681.765 314ZM586.845 223C588.525 223.187 591.792 223.28 596.645 223.28C611.019 223.28 619.419 222.067 621.845 219.64C624.085 217.4 625.205 212.173 625.205 203.96C625.205 196.307 623.152 191.08 619.045 188.28C615.125 185.48 608.592 184.08 599.445 184.08C597.392 184.08 593.192 184.267 586.845 184.64V223ZM782.587 314H732.187V189.4H687.107V154.4H827.667V189.4H782.587V314Z" fill="white"/>
</g>
<defs>
<clipPath id="clip0_70_13">
<rect width="912" height="456" fill="white"/>
</clipPath>
</defs>
</svg>
