<svg width="784" height="784" viewBox="0 0 784 784" fill="none" xmlns="http://www.w3.org/2000/svg">
<circle cx="392" cy="392" r="341" fill="#48AEE2"/>
<path d="M391.563 287.474C420.375 287.474 443.8 264.049 443.8 235.237C443.8 206.425 420.375 183 391.563 183C362.752 183 339.327 206.425 339.327 235.237C339.327 264.049 362.752 287.474 391.563 287.474ZM495.466 472.343L458.247 320.693C455.554 309.674 445.596 301.92 433.924 300.941C421.681 308.858 407.153 313.592 391.482 313.592C375.811 313.592 361.282 308.858 349.039 300.941C337.368 301.92 327.41 309.674 324.717 320.693L287.498 472.343C284.641 484.668 294.436 496.421 307.658 496.421H352.386V581.306C352.386 592.161 361.119 600.894 371.975 600.894H411.152C422.008 600.894 430.741 592.161 430.741 581.306V496.421H475.469C488.691 496.421 498.486 484.668 495.466 472.343Z" fill="white"/>
</svg>
