<svg width="454" height="454" viewBox="0 0 454 454" fill="none" xmlns="http://www.w3.org/2000/svg">
<rect width="454" height="454" fill="white"/>
<path d="M324.628 160.895C237.064 141.698 308.844 20.2616 188.871 30.3259C68.898 40.3901 -44.868 316.647 168.122 381.333C381.112 446.02 490.887 197.384 324.628 160.895Z" fill="#FDCD60"/>
<path d="M183.506 309.332L223.453 269.385C227.443 265.395 229.66 260.075 229.66 254.444C229.66 249.39 227.887 244.646 224.65 240.789L237.641 227.798C251.828 239.148 269.341 245.355 287.785 245.355C309.287 245.355 329.505 236.976 344.668 221.813C359.875 206.606 368.21 186.433 368.21 164.93C368.21 143.427 359.83 123.21 344.668 108.047C329.46 92.8395 309.287 84.5044 287.785 84.5044C266.282 84.5044 246.064 92.8839 230.902 108.047C215.694 123.254 207.359 143.427 207.359 164.93C207.359 183.374 213.522 200.886 224.916 215.074L211.926 228.064C208.113 224.828 203.325 223.054 198.27 223.054C192.64 223.054 187.319 225.271 183.329 229.261L143.338 269.119C139.348 273.109 137.131 278.43 137.131 284.06C137.131 289.691 139.348 295.011 143.338 299.002L153.624 309.288C157.614 313.278 162.935 315.495 168.565 315.495C174.24 315.495 179.561 313.278 183.506 309.332Z" fill="#2D2D40"/>
<path d="M238.971 115.983C252.005 102.948 269.341 95.7212 287.829 95.7212C306.273 95.7212 323.608 102.904 336.687 115.983C349.722 129.017 356.904 146.353 356.904 164.841C356.904 183.285 349.722 200.62 336.643 213.699C323.608 226.734 306.273 233.961 287.785 233.961C269.341 233.961 252.005 226.778 238.926 213.699C225.892 200.664 218.665 183.329 218.665 164.841C218.754 146.353 225.936 129.017 238.971 115.983Z" fill="white"/>
<path d="M298.514 116.604C281.844 116.604 266.193 123.077 254.4 134.87C242.606 146.663 236.133 162.314 236.133 178.984C236.133 189.846 238.882 200.265 244.069 209.487C255.818 221.103 271.38 227.488 287.918 227.488C304.588 227.488 320.238 221.015 332.032 209.221C343.825 197.428 350.298 181.777 350.298 165.107C350.298 154.245 347.549 143.826 342.362 134.604C330.569 122.988 315.051 116.604 298.514 116.604Z" fill="#6ECBFB"/>
<path d="M166.437 304.499L146.486 284.992C146.151 284.661 145.884 284.268 145.701 283.834C145.519 283.401 145.424 282.935 145.422 282.464C145.422 281.932 145.555 280.824 146.486 279.937L193.659 232.764C194.59 231.833 195.654 231.7 196.187 231.7C196.719 231.7 197.827 231.833 198.714 232.764L218.665 252.272C219.596 253.203 219.729 254.267 219.729 254.799C219.729 255.331 219.596 256.439 218.665 257.326L171.491 304.499C171.161 304.835 170.768 305.101 170.334 305.284C169.9 305.467 169.435 305.562 168.964 305.563C168.388 305.563 167.324 305.43 166.437 304.499Z" fill="white"/>
<path d="M195.255 239.99C194.723 239.99 193.659 240.123 192.728 241.055L149.988 283.75L166.393 299.711C167.279 300.642 168.344 300.775 168.92 300.775C169.452 300.775 170.516 300.642 171.447 299.711L214.143 257.015L197.738 241.055C196.896 240.123 195.787 239.99 195.255 239.99Z" fill="#FDCD60"/>
</svg>
