<svg width="496" height="496" viewBox="0 0 496 496" fill="none" xmlns="http://www.w3.org/2000/svg">
<rect width="496" height="496" fill="white"/>
<path d="M380.719 135.141L357.469 128.844L380.719 122.547L387.016 99.2969L393.312 122.547L417.047 128.844L393.312 135.141L387.016 158.875L380.719 135.141ZM403.969 160.812L394.766 158.875L403.969 156.453L405.906 147.25L408.328 156.453L417.531 158.875L408.328 160.812L405.906 170.016L403.969 160.812Z" fill="#FDCD60"/>
<path d="M77.0156 346.328L66.8438 343.906L77.0156 341.484L79.4375 331.312L81.8594 341.484L92.0312 343.906L81.8594 346.328L79.4375 356.5L77.0156 346.328Z" fill="#FDCD60"/>
<path d="M139.5 397.672L126.422 394.766L139.5 391.375L142.406 378.297L145.797 391.375L158.875 394.766L145.797 397.672L142.406 410.75L139.5 397.672Z" fill="#FDCD60"/>
<path d="M303.703 243.156L298.859 234.922L304.188 231.531V139.016L293.531 145.797C294.509 149.594 294.997 153.501 294.984 157.422C294.984 170.984 285.781 188.422 266.891 209.734C277.062 213.125 283.359 218.938 283.359 226.203C283.359 233.469 268.344 245.578 248.969 245.578C229.594 245.578 214.578 237.344 214.578 226.203C214.578 215.062 220.875 213.125 231.047 209.734L218.938 195.203L199.562 207.797V294.984H200.531L205.859 291.594L211.188 299.828L202.953 304.672H199.562V358.922L304.188 309.516V242.672L303.703 243.156ZM238.312 283.359L230.562 288.203L226.688 290.625L222.812 293.047H222.328L219.906 288.688L217.484 284.812L221.844 282.391L233.469 275.125L238.312 283.359ZM265.438 266.406L249.453 276.094L244.609 267.859L260.594 258.172L265.438 266.406ZM292.562 249.453L276.578 259.141L271.734 250.906L279.969 246.062L287.719 241.219L292.562 249.453ZM91.0625 310L189.875 357.953V206.828L91.0625 143.375V310ZM169.531 274.156L185.031 284.812L179.703 292.562L164.203 281.906L169.531 274.156ZM141.922 259.141L143.859 256.719L147.734 259.625L158.875 267.375L153.547 275.125L146.281 269.797L142.406 266.891L138.531 263.984L141.922 259.141ZM121.578 237.344C124.356 237.344 127.072 238.168 129.382 239.711C131.692 241.255 133.493 243.448 134.556 246.015C135.619 248.582 135.897 251.406 135.355 254.131C134.813 256.856 133.475 259.359 131.511 261.323C129.546 263.288 127.043 264.626 124.319 265.168C121.594 265.71 118.769 265.431 116.203 264.368C113.636 263.305 111.442 261.505 109.899 259.195C108.355 256.885 107.531 254.169 107.531 251.391C107.53 249.504 107.909 247.637 108.645 245.901C109.381 244.164 110.459 242.594 111.815 241.283C113.171 239.972 114.778 238.947 116.538 238.271C118.299 237.594 120.177 237.279 122.062 237.344H121.578ZM313.875 231.047L319.688 233.953L315.328 242.672L313.875 241.703V310L418.984 356.016V207.312L313.875 138.047V231.047ZM399.125 263.984C401.903 263.984 404.619 264.808 406.929 266.352C409.239 267.895 411.039 270.089 412.103 272.656C413.166 275.222 413.444 278.047 412.902 280.772C412.36 283.496 411.022 285.999 409.058 287.964C407.093 289.928 404.59 291.266 401.865 291.808C399.141 292.35 396.316 292.072 393.749 291.009C391.183 289.946 388.989 288.145 387.445 285.835C385.902 283.525 385.078 280.809 385.078 278.031C385.078 274.306 386.558 270.733 389.192 268.099C391.827 265.464 395.4 263.984 399.125 263.984ZM364.25 256.719L381.688 265.922L377.328 274.641L359.891 265.922L364.25 256.719ZM330.828 245.578L333.25 240.734L337.609 242.672L341.969 244.609L350.688 248.969L346.328 257.688L333.25 250.906L328.891 248.969L330.828 245.578Z" fill="#FDCD60"/>
<path d="M310 124L290.141 137.078C285.655 127.495 278.003 119.751 268.475 115.15C258.947 110.549 248.124 109.372 237.83 111.818C227.535 114.264 218.398 120.182 211.957 128.577C205.517 136.972 202.166 147.33 202.469 157.906C202.469 166.141 205.859 176.313 213.125 187.453L195.203 199.078L81.375 125.938V315.813L195.688 371.516L308.547 318.234L428.672 370.547V201.984L310 124ZM212.156 157.422C212.156 147.723 216.009 138.421 222.867 131.563C229.726 124.705 239.028 120.852 248.727 120.852C258.426 120.852 267.727 124.705 274.586 131.563C281.444 138.421 285.297 147.723 285.297 157.422C285.297 173.406 265.922 196.656 248.969 214.578C218.938 184.063 212.156 166.625 212.156 157.422ZM259.141 217.484C267.859 219.422 273.188 223.297 273.188 226.203C273.188 229.109 263.5 235.891 248.484 235.891C233.469 235.891 223.781 230.078 223.781 226.203C223.781 222.328 229.109 219.422 237.828 217.484L245.094 224.75L248.484 228.141L251.875 224.75L259.141 217.484ZM189.875 357.953L91.0625 310V143.375L189.875 206.828V357.953ZM199.562 358.922V305.156H202.953L211.188 300.313L205.859 292.078L200.531 295.469H199.562V207.797L218.938 195.203L231.047 209.734C220.875 213.125 214.578 218.938 214.578 226.203C214.578 233.469 229.594 245.578 248.969 245.578C268.344 245.578 283.359 237.344 283.359 226.203C283.359 215.063 277.062 213.125 266.891 209.734C285.781 188.422 294.984 170.984 294.984 157.422C294.997 153.501 294.509 149.594 293.531 145.797L304.188 139.016V231.047L298.859 234.438L303.703 242.672H304.188V309.516L199.562 358.922ZM418.984 356.016L313.875 310V241.703L315.328 242.672L319.688 233.953L313.875 231.047V138.047L418.984 207.313V356.016Z" fill="white"/>
<path d="M138.531 264.469L142.406 266.891L146.281 269.797L153.547 275.125L159.359 266.891L147.734 259.141L143.859 256.234L141.922 258.656L138.531 264.469ZM179.703 292.562L185.031 284.812L169.531 274.156L164.203 281.906L179.703 292.562ZM232.984 275.125L221.359 282.391L217 284.812L217.484 285.297H217L219.422 289.172L221.844 293.531V293.047L222.328 293.531L226.203 291.109L230.562 288.688H230.078L238.312 283.359L232.984 275.125ZM260.109 258.656L244.125 268.344L249.453 276.578L265.438 266.891L260.594 258.656H260.109ZM287.719 241.703L279.969 246.547L271.734 251.391L276.578 259.625L292.562 249.938L287.719 241.703ZM328.891 249.453L333.25 251.391L346.328 258.172L350.688 249.938V249.453L341.969 245.094L337.609 243.156L333.25 240.734L330.828 245.578L328.891 249.453ZM377.328 274.156L381.688 265.438L364.25 256.719L359.891 264.953V265.438L377.328 274.156Z" fill="#85848A"/>
<path d="M399.125 283.359C400.179 283.359 401.209 283.047 402.085 282.461C402.961 281.876 403.644 281.044 404.048 280.07C404.451 279.097 404.556 278.025 404.351 276.992C404.145 275.958 403.638 275.009 402.893 274.264C402.147 273.519 401.198 273.011 400.164 272.806C399.131 272.6 398.06 272.705 397.086 273.109C396.112 273.512 395.28 274.195 394.695 275.071C394.109 275.947 393.797 276.977 393.797 278.031C393.797 279.444 394.358 280.8 395.357 281.799C396.357 282.798 397.712 283.359 399.125 283.359Z" fill="white"/>
<path d="M399.125 292.078C401.903 292.078 404.619 291.254 406.929 289.711C409.239 288.167 411.039 285.973 412.103 283.407C413.166 280.84 413.444 278.016 412.902 275.291C412.36 272.566 411.022 270.063 409.058 268.099C407.093 266.134 404.59 264.796 401.865 264.254C399.141 263.712 396.316 263.99 393.749 265.054C391.183 266.117 388.989 267.917 387.445 270.227C385.902 272.537 385.078 275.253 385.078 278.031C385.078 281.757 386.558 285.33 389.192 287.964C391.827 290.598 395.4 292.078 399.125 292.078ZM399.125 272.703C400.179 272.703 401.209 273.016 402.085 273.601C402.961 274.187 403.644 275.019 404.048 275.992C404.451 276.966 404.556 278.037 404.351 279.071C404.145 280.104 403.638 281.054 402.893 281.799C402.147 282.544 401.198 283.051 400.164 283.257C399.131 283.463 398.06 283.357 397.086 282.954C396.112 282.551 395.28 281.868 394.695 280.991C394.109 280.115 393.797 279.085 393.797 278.031C393.797 276.618 394.358 275.263 395.357 274.264C396.357 273.264 397.712 272.703 399.125 272.703Z" fill="#85848A"/>
<path d="M122.062 256.719C123.116 256.719 124.146 256.406 125.023 255.821C125.899 255.235 126.582 254.403 126.985 253.43C127.388 252.456 127.494 251.385 127.288 250.351C127.083 249.318 126.575 248.368 125.83 247.623C125.085 246.878 124.136 246.37 123.102 246.165C122.068 245.959 120.997 246.065 120.024 246.468C119.05 246.871 118.218 247.554 117.632 248.43C117.047 249.307 116.734 250.337 116.734 251.391C116.734 252.804 117.296 254.159 118.295 255.158C119.294 256.157 120.649 256.719 122.062 256.719Z" fill="white"/>
<path d="M122.062 265.438C124.841 265.438 127.557 264.614 129.867 263.07C132.177 261.527 133.977 259.333 135.04 256.766C136.103 254.199 136.381 251.375 135.839 248.65C135.297 245.925 133.96 243.422 131.995 241.458C130.031 239.493 127.528 238.156 124.803 237.614C122.078 237.072 119.254 237.35 116.687 238.413C114.12 239.476 111.926 241.277 110.383 243.587C108.839 245.897 108.016 248.612 108.016 251.391C108.016 255.116 109.496 258.689 112.13 261.323C114.764 263.958 118.337 265.438 122.062 265.438ZM122.062 246.063C123.116 246.063 124.146 246.375 125.023 246.96C125.899 247.546 126.582 248.378 126.985 249.352C127.388 250.325 127.494 251.397 127.288 252.43C127.083 253.464 126.575 254.413 125.83 255.158C125.085 255.903 124.136 256.411 123.102 256.616C122.068 256.822 120.997 256.716 120.024 256.313C119.05 255.91 118.218 255.227 117.632 254.351C117.047 253.475 116.734 252.444 116.734 251.391C116.734 249.978 117.296 248.622 118.295 247.623C119.294 246.624 120.649 246.063 122.062 246.063Z" fill="#85848A"/>
<path d="M245.578 225.234L238.312 217.969C229.594 219.906 224.266 223.781 224.266 226.688C224.266 229.594 233.953 236.375 248.969 236.375C263.984 236.375 273.672 230.562 273.672 226.688C273.672 222.812 268.344 219.906 259.625 217.969L252.359 225.234L248.969 228.625L245.578 225.234Z" fill="#AFBCF3"/>
<path d="M248.969 215.062C266.406 197.141 285.297 173.891 285.297 157.906C285.297 148.207 281.444 138.905 274.586 132.047C267.727 125.189 258.426 121.336 248.727 121.336C239.028 121.336 229.726 125.189 222.867 132.047C216.009 138.905 212.156 148.207 212.156 157.906C212.156 166.625 218.938 184.062 248.969 215.062ZM232.016 158.391C232.016 155.038 233.01 151.76 234.873 148.972C236.736 146.184 239.383 144.011 242.481 142.728C245.579 141.445 248.988 141.109 252.276 141.763C255.565 142.417 258.585 144.032 260.956 146.403C263.327 148.774 264.942 151.795 265.596 155.083C266.25 158.372 265.915 161.781 264.631 164.878C263.348 167.976 261.175 170.624 258.387 172.487C255.599 174.349 252.322 175.344 248.969 175.344C244.473 175.344 240.16 173.558 236.981 170.378C233.802 167.199 232.016 162.887 232.016 158.391Z" fill="#48AEE2"/>
<path d="M232.016 158.391C232.016 162.887 233.802 167.199 236.981 170.378C240.16 173.558 244.473 175.344 248.969 175.344C253.465 175.344 257.777 173.558 260.956 170.378C264.136 167.199 265.922 162.887 265.922 158.391C265.922 153.894 264.136 149.582 260.956 146.403C257.777 143.224 253.465 141.438 248.969 141.438C244.473 141.438 240.16 143.224 236.981 146.403C233.802 149.582 232.016 153.894 232.016 158.391Z" fill="white"/>
</svg>
