<svg width="26" height="26" viewBox="0 0 26 26" fill="none" xmlns="http://www.w3.org/2000/svg">
<path d="M12.3344 25.7714C12.3344 25.7714 12.335 25.7718 13 24.9166L13.6651 25.7718C13.2739 26.076 12.7256 26.0757 12.3344 25.7714Z" fill="#48AEE2"/>
<path fill-rule="evenodd" clip-rule="evenodd" d="M13 6.5C10.6068 6.5 8.66666 8.4401 8.66666 10.8333C8.66666 13.2265 10.6068 15.1667 13 15.1667C15.3932 15.1667 17.3333 13.2265 17.3333 10.8333C17.3333 8.4401 15.3932 6.5 13 6.5ZM10.8333 10.8333C10.8333 9.63672 11.8033 8.66667 13 8.66667C14.1966 8.66667 15.1667 9.63672 15.1667 10.8333C15.1667 12.03 14.1966 13 13 13C11.8033 13 10.8333 12.03 10.8333 10.8333Z" fill="#48AEE2"/>
<path fill-rule="evenodd" clip-rule="evenodd" d="M12.3344 25.7714L13 24.9167C13.665 25.7718 13.6662 25.7709 13.6662 25.7709L13.6683 25.7694L13.675 25.764L13.6987 25.7454C13.7191 25.7293 13.7485 25.7061 13.7863 25.6759C13.8617 25.6155 13.9708 25.5273 14.1086 25.4136C14.3841 25.1862 14.775 24.856 15.2431 24.4399C16.1778 23.6091 17.4272 22.4294 18.6802 21.0372C19.9301 19.6485 21.2042 18.0256 22.1707 16.3072C23.1318 14.5988 23.8333 12.7176 23.8333 10.8333C23.8333 7.96016 22.6919 5.20466 20.6603 3.17301C18.6287 1.14137 15.8732 0 13 0C10.1268 0 7.37131 1.14137 5.33966 3.17301C3.30802 5.20466 2.16666 7.96016 2.16666 10.8333C2.16666 12.7176 2.86824 14.5988 3.82922 16.3072C4.79583 18.0256 6.06994 19.6485 7.31976 21.0372C8.57272 22.4294 9.82216 23.6091 10.7568 24.4399C11.2249 24.856 11.6159 25.1862 11.8914 25.4136C12.0292 25.5273 12.1383 25.6155 12.2137 25.6759C12.2515 25.7061 12.2809 25.7293 12.3012 25.7454L12.325 25.764L12.3317 25.7694L12.3344 25.7714ZM6.87174 4.70508C8.49705 3.07975 10.7014 2.16667 13 2.16667C15.2985 2.16667 17.503 3.07975 19.1283 4.70508C20.7535 6.33039 21.6667 8.53479 21.6667 10.8333C21.6667 12.1991 21.1495 13.7033 20.2824 15.2449C19.4208 16.7765 18.2574 18.2681 17.0697 19.5877C15.8852 20.9039 14.6971 22.0263 13.8037 22.8205C13.4957 23.0943 13.2237 23.3282 13 23.5168C12.7763 23.3282 12.5043 23.0943 12.1963 22.8205C11.3028 22.0263 10.1148 20.9039 8.93022 19.5877C7.74254 18.2681 6.57915 16.7765 5.71764 15.2449C4.85048 13.7033 4.33332 12.1991 4.33332 10.8333C4.33332 8.53479 5.24641 6.33039 6.87174 4.70508Z" fill="#48AEE2"/>
</svg>
